<svg xmlns="http://www.w3.org/2000/svg" width="100.001" height="99.799" viewBox="0 0 100.001 99.799">
  <g id="Group_212" data-name="Group 212" transform="translate(-10316 -6360)">
    <path id="Intersection_3" data-name="Intersection 3" d="M0,94.889,42.248,0h25.3s0,99.8-50,99.8A32.7,32.7,0,0,1,0,94.889Z" transform="translate(10348.45 6360)" fill="#f7f7f7"/>
    <g id="Group_211" data-name="Group 211" transform="translate(-8.935 -13)">
      <path id="Subtraction_3" data-name="Subtraction 3" d="M-100.616,98.889v0h0a41.516,41.516,0,0,1-10.709-9.842,68.874,68.874,0,0,1-8.049-13.455c-4.037-8.7-7.278-19.361-9.633-31.677A238.2,238.2,0,0,1-132.558,16c-.5-7.244-.507-11.956-.507-12h74.7l-42.247,94.889Z" transform="translate(10458 6369)" fill="#efefef"/>
    </g>
  </g>
</svg>
